# xmcd CD database file
#
# Track frame offsets:
#	150
#	12726
#	24816
#	34289
#	46351
#	60045
#	75329
#	88471
#	102797
#	112228
#	125522
#	139496
#
# Disc length: 2023 seconds
#
# Revision: 0
# Processed by: cddbd v1.5.1PL0 Copyright (c) Steve Scherf et al.
# Submitted via: CDex 1.51
#
DISCID=9d07e50c
DTITLE=Various Artist - Country Hits
DYEAR=1900
DGENRE=Country
TTITLE0=Made In Japan
TTITLE1=Eleven Roses
TTITLE2=Midnight Special
TTITLE3=Here I am Again
TTITLE4=Sweet Dream Woman
TTITLE5=Woman Sensous Woman
TTITLE6=Listen to a Country Song
TTITLE7=The Monkey tha Becam President
TTITLE8=Wildwood Flower
TTITLE9=Reach Out Your Hand
TTITLE10=Borrowed Angel
TTITLE11=It's Gonna Take a Little Bit Longer
EXTD=
EXTT0=
EXTT1=
EXTT2=
EXTT3=
EXTT4=
EXTT5=
EXTT6=
EXTT7=
EXTT8=
EXTT9=
EXTT10=
EXTT11=
PLAYORDER=
